# xmcd
#
# Track frame offsets:
#        150
#        21755
#        46702
#        67052
#        92230
#        116410
#        140702
#        163017
#        192307
#        216912
#        241507
#        269105
#        294112
#        317097
#
# Disc length: 4510 seconds
#
# Revision: 0
# Processed by: cddbd v1.5.1PL0 Copyright (c) Steve Scherf et al.
# Submitted via: ExactAudioCopy v0.95b2
#
DISCID=cd119c0e
DTITLE=Various Artist - Militant Science BOTCHIT&SCARPER
DYEAR=1900
DGENRE=A Cappella
TTITLE0=ADF Soundsystem Feat. Nikhil and MEE - Dub Teacher
TTITLE1=Native Bass - Tabstramental
TTITLE2=Native Bass - Mindset
TTITLE3=Glowball - Pornagrafika
TTITLE4=Adf Soundsystem Vs Native Bass Feat. Hermionets - Smash And Gr
TTITLE4=ab The Flowers
TTITLE5=Raw Deal - Imaginary World
TTITLE6=Raw Deal - Headless Horseman
TTITLE7=Purple Kola - Delta Silenge
TTITLE8=Tonic - Renegade
TTITLE9=Adf Soundsystem Vs Ramjac Corperation Feat Kapa D - Militant S
TTITLE9=cientist
TTITLE10=Asian Dub Foundation - P.K.N.B
TTITLE11=Hempolics(Elementz Of Noize Vs Davros Mix) - Dalek Tune [Da L
TTITLE11=ick]
TTITLE12=Purple Kola - The Ladder
TTITLE13=Jamie Todd - Death Is Coming
EXTD=
EXTT0=
EXTT1=
EXTT2=
EXTT3=
EXTT4=
EXTT5=
EXTT6=
EXTT7=
EXTT8=
EXTT9=
EXTT10=
EXTT11=
EXTT12=
EXTT13=
PLAYORDER=
